<?xml version="1.0" encoding="iso-8859-1"?>
<!-- Generator: Adobe Illustrator 19.0.0, SVG Export Plug-In . SVG Version: 6.00 Build 0)  -->
<svg version="1.1" id="Capa_1" xmlns="http://www.w3.org/2000/svg" xmlns:xlink="http://www.w3.org/1999/xlink" x="0px" y="0px"
	 viewBox="0 0 404 404" style="enable-background:new 0 0 404 404;" xml:space="preserve">
<path style="fill:#3F5A6C;" d="M276.8,125.6c-12-73.6-41.6-124.8-76-124.8s-64,51.2-76,125.6C49.6,137.6,0,167.2,0,201.6
	s51.2,64,125.6,76c12,74.4,40.8,125.6,76,125.6c9.6,0,19.2-4,27.2-10.4c3.2-3.2,4-8,0.8-11.2s-8-4-11.2-0.8
	c-4.8,4-10.4,6.4-16.8,7.2c-23.2,0-48-41.6-59.2-107.2c19.2,2.4,39.2,3.2,59.2,3.2s39.2-0.8,59.2-3.2c-1.6,11.2-4,22.4-7.2,33.6
	l-10.4-16c-2.4-4-7.2-4.8-11.2-2.4c-3.2,2.4-4.8,7.2-2.4,10.4l19.2,31.2l0.8,0.8l0.8,0.8l0.8,0.8l0.8,0.8l1.6,0.8h0.8
	c0.8,0,1.6,0,2.4,0c0.8,0,2.4,0,3.2-0.8l0,0l36.8-17.6c4-1.6,6.4-6.4,4.8-10.4s-6.4-6.4-10.4-4.8c0,0-0.8,0-0.8,0.8l-20,9.6
	c3.2-12.8,6.4-26.4,8-39.2c74.4-12,125.6-41.6,125.6-76S351.2,137.6,276.8,125.6z M122.4,260.8C57.6,249.6,16,224.8,16,201.6
	c0-24.8,44-48,107.2-59.2C118.4,181.6,118.4,221.6,122.4,260.8L122.4,260.8z M262.4,263.2c-20.8,2.4-40.8,4-61.6,4s-40.8-1.6-61.6-4
	c-5.6-40.8-5.6-82.4,0-123.2l10.4-0.8c4.8-0.8,8-4.8,7.2-8.8s-4.8-8-8.8-7.2l-5.6,0.8c10.4-65.6,35.2-107.2,58.4-107.2
	s48,41.6,59.2,107.2c-10.4-0.8-20-2.4-31.2-2.4l12-12.8c3.2-3.2,3.2-8,0-11.2s-8-3.2-11.2,0L203.2,124l-0.8,0.8c0,0-0.8,0.8-0.8,1.6
	s0,0.8,0,1.6s0,0.8,0,1.6s0,0.8,0,1.6s0,0.8,0,1.6s0.8,0.8,0.8,1.6c0,0,0,0.8,0.8,0.8l26.4,32c2.4,3.2,7.2,4,11.2,1.6
	c3.2-2.4,4-7.2,1.6-11.2l-0.8-0.8l-15.2-19.2c12.8,0.8,24.8,1.6,36,3.2c2.4,20.8,4,40.8,4,61.6C266.4,222.4,264.8,242.4,262.4,263.2
	L262.4,263.2z M278.4,260.8c2.4-19.2,3.2-39.2,3.2-59.2s-0.8-39.2-3.2-59.2c66.4,11.2,107.2,36.8,107.2,59.2S344,249.6,278.4,260.8
	L278.4,260.8z"/>
<g>
</g>
<g>
</g>
<g>
</g>
<g>
</g>
<g>
</g>
<g>
</g>
<g>
</g>
<g>
</g>
<g>
</g>
<g>
</g>
<g>
</g>
<g>
</g>
<g>
</g>
<g>
</g>
<g>
</g>
</svg>
