<svg id="Layer_1" enable-background="new 0 0 512 512" height="512" viewBox="0 0 512 512" width="512" xmlns="http://www.w3.org/2000/svg"><g><path d="m409.07 174.246c-7.947-2.327-16.282 2.229-18.61 10.181-2.328 7.95 2.23 16.282 10.181 18.61 48.752 14.274 80.254 35.914 80.254 55.131 0 16.452-22.603 34.627-60.463 48.618-43.688 16.144-102.084 25.036-164.432 25.036-8.396 0-16.719-.161-24.945-.48l.464 30.035c8.087.295 16.255.444 24.481.444 65.808 0 127.897-9.552 174.83-26.896 23.75-8.776 42.618-19.191 56.081-30.954 10.94-9.559 23.982-25.265 23.982-45.804.001-34.892-36.161-64.697-101.823-83.921z" fill="#fdbf00"/><path d="m282.049 155.147c-10.171-.484-15.09-.635-26.049-.635-65.808 0-127.897 9.552-174.83 26.896-23.75 8.776-42.618 19.19-56.081 30.953-10.94 9.56-23.982 25.266-23.982 45.804 0 20.539 13.042 36.245 23.982 45.804 13.463 11.763 32.331 22.178 56.081 30.954 41.066 15.177 93.737 24.387 150.349 26.452l-.464-30.035c-52.863-2.046-101.682-10.586-139.485-24.556-37.86-13.991-60.463-32.166-60.463-48.618 0-16.451 22.603-34.626 60.463-48.617 43.688-16.145 102.083-25.036 164.431-25.036 10.423 0 14.841.136 24.621.602 8.275.354 15.302-5.995 15.697-14.27.393-8.276-5.996-15.304-14.27-15.698z" fill="#f9007b"/><path d="m282.049 155.143c-9.317-.444-14.24-.607-23.423-.631v30c8.609.023 13.083.173 21.995.598 8.275.354 15.302-5.995 15.697-14.27.394-8.275-5.995-15.302-14.269-15.697z" fill="#950049"/><path d="m333.591 82.276-28.14 10.399c16.145 43.688 25.036 102.084 25.036 164.432s-8.892 120.743-25.036 164.431c-13.991 37.86-32.166 60.462-48.617 60.462-13.653 0-28.846-15.916-41.681-43.667-3.479-7.519-12.395-10.797-19.911-7.317-7.519 3.478-10.795 12.393-7.317 19.911 23.347 50.478 50.359 61.073 68.909 61.073 20.538 0 36.244-13.042 45.804-23.982 11.763-13.463 22.177-32.331 30.953-56.081 17.345-46.933 26.896-109.022 26.896-174.83.001-65.809-9.551-127.898-26.896-174.831z" fill="#4dffff"/><path d="m304.127 23.982c-9.559-10.94-25.265-23.982-45.804-23.982s-36.244 13.042-45.804 23.982c-11.763 13.463-22.177 32.331-30.954 56.081-17.345 46.934-26.896 109.022-26.896 174.831 0 3.899.034 7.868.103 11.797.143 8.194 6.829 14.739 14.992 14.739.089 0 .178-.001.267-.002 8.283-.145 14.881-6.976 14.737-15.259-.065-3.755-.099-7.549-.099-11.275 0-62.348 8.892-120.744 25.036-164.432 13.991-37.858 32.167-60.462 48.618-60.462s34.626 22.603 48.617 60.463l28.14-10.399c-8.776-23.751-19.19-42.619-30.953-56.082z" fill="#979fef"/><path d="m258.626 0v30.007c16.371.275 34.409 22.821 48.314 60.45l28.14-10.399c-8.776-23.75-19.19-42.618-30.953-56.081-9.512-10.887-25.112-23.849-45.501-23.977z" fill="#7c82ef"/><path d="m305.451 92.711c16.145 43.688 25.036 102.084 25.036 164.432s-8.892 120.743-25.036 164.431c-13.485 36.491-30.856 58.799-46.825 60.366v30.06c19.66-.729 34.732-13.327 44.011-23.947 11.763-13.463 22.177-32.331 30.953-56.081 17.345-46.933 26.896-109.023 26.896-174.83 0-65.809-9.552-127.897-26.896-174.831z" fill="#00ddc1"/><path d="m297.617 62.082-18.256 42.421c-3.274 7.609.239 16.434 7.849 19.708 1.934.832 3.943 1.226 5.923 1.226 5.811 0 11.342-3.397 13.785-9.074l12.585-29.243 29.93 11.329c1.749.662 3.543.976 5.308.976 6.057 0 11.761-3.694 14.031-9.693 2.932-7.75-.971-16.408-8.718-19.341l-43.348-16.408c-14.05-4.426-19.089 8.099-19.089 8.099z" fill="#4dffff"/><path d="m264.079 336.837-30.316-34.839c-5.438-6.25-14.915-6.908-21.162-1.469-6.249 5.438-6.907 14.913-1.469 21.162l20.898 24.016-23.182 22.062c-6.001 5.712-6.236 15.206-.525 21.207 2.948 3.098 6.905 4.659 10.868 4.659 3.715 0 7.436-1.371 10.339-4.134l33.574-31.952c10.742-10.742.975-20.712.975-20.712z" fill="#ff6689"/></g></svg>